<?xml version="1.0" standalone="no"?>
<!DOCTYPE svg PUBLIC "-//W3C//DTD SVG 20010904//EN"
 "http://www.w3.org/TR/2001/REC-SVG-20010904/DTD/svg10.dtd">
<svg version="1.0" xmlns="http://www.w3.org/2000/svg"
 width="1088.000000pt" height="668.000000pt" viewBox="0 0 1088.000000 668.000000"
 preserveAspectRatio="xMidYMid meet">

<g transform="translate(0.000000,668.000000) scale(0.100000,-0.100000)"
fill="#000000" stroke="none">
<path d="M2350 6150 l0 -270 510 0 510 0 0 -191 0 -191 -26 32 c-18 21 -30 28
-37 21 -6 -6 1 -23 22 -48 l31 -38 -280 -3 -280 -2 0 -420 0 -420 495 0 495 0
0 -191 0 -191 -26 32 c-18 21 -30 28 -37 21 -6 -6 -1 -21 18 -43 l28 -33 -322
-3 -321 -2 0 -305 c0 -168 -3 -305 -6 -305 -3 0 -24 14 -46 31 -29 24 -42 29
-51 20 -8 -8 -6 -15 8 -25 11 -7 31 -23 45 -35 l25 -20 -342 -1 -343 0 0 230
0 230 -1070 0 -1070 0 0 -460 0 -460 1070 0 1070 0 0 215 0 215 342 0 341 0
-41 -30 c-41 -29 -53 -50 -31 -50 6 0 30 14 55 30 l44 31 0 -486 0 -485 -352
0 -352 0 32 33 c30 31 41 57 25 57 -4 0 -22 -14 -40 -32 l-33 -32 0 122 0 122
-870 0 -870 0 0 -320 0 -320 870 0 870 0 0 162 0 162 33 -32 c33 -32 57 -41
57 -22 0 6 -15 24 -32 40 l-33 29 213 1 212 0 0 -582 0 -581 -27 36 c-28 36
-53 48 -53 25 1 -7 14 -29 31 -48 l30 -35 -446 -3 -445 -2 0 -310 0 -310 910
0 910 0 0 310 0 310 -431 2 -430 3 30 40 c52 68 35 93 -18 28 l-31 -38 0 578
0 577 120 0 120 0 0 -280 0 -280 1070 0 c589 0 1070 -3 1070 -8 0 -4 -12 -25
-26 -46 -20 -29 -23 -41 -14 -49 8 -9 13 -8 20 3 40 69 39 71 40 -237 l0 -293
-125 0 -125 0 0 -410 0 -410 725 0 725 0 0 410 0 410 -585 0 -585 0 0 297 0
296 28 -36 c26 -35 52 -48 52 -26 0 6 -16 31 -36 55 l-36 44 191 0 191 0 0
130 0 130 233 0 232 -1 -47 -24 c-50 -27 -64 -40 -49 -50 16 -9 162 68 159 84
-5 23 -158 115 -171 102 -7 -7 6 -20 42 -42 28 -18 51 -34 51 -35 0 -2 -101
-4 -225 -4 l-225 0 0 125 0 125 233 0 232 -1 -47 -24 c-50 -27 -64 -40 -49
-50 16 -9 162 68 159 84 -5 23 -158 115 -171 102 -7 -7 6 -20 42 -42 28 -18
51 -34 51 -35 0 -2 -101 -4 -225 -4 l-225 0 0 615 0 615 237 0 236 0 -41 -30
c-41 -29 -53 -50 -31 -50 6 0 30 14 54 30 24 17 46 30 49 30 3 0 6 -70 6 -155
l0 -155 880 0 880 0 0 150 0 150 237 0 236 0 -41 -30 c-41 -30 -53 -50 -30
-50 6 0 26 11 44 25 18 14 35 25 38 25 3 0 6 -85 6 -190 l0 -190 1010 0 1010
0 0 435 0 435 -1010 0 -1010 0 0 -212 0 -212 -40 39 c-29 29 -43 36 -51 28 -8
-8 -2 -19 22 -42 l34 -30 -227 -1 -228 0 0 170 0 170 -880 0 -879 0 -3 -146
-3 -146 -48 37 c-36 28 -52 34 -60 26 -8 -8 -6 -15 8 -25 11 -7 31 -23 45 -35
l25 -20 -237 -1 -238 0 0 210 0 210 -240 0 -240 0 25 40 c14 23 23 45 20 51
-9 13 -23 2 -46 -35 l-19 -31 0 193 0 192 455 0 455 0 0 420 0 420 -335 0
-335 0 16 38 c20 46 22 56 9 62 -5 3 -18 -11 -27 -30 -17 -34 -17 -31 -18 158
l0 192 390 0 390 0 0 270 0 270 -740 0 -740 0 0 -270 0 -270 335 0 335 0 0
-187 c0 -175 -1 -186 -16 -164 -28 39 -40 9 -14 -33 l22 -36 -291 0 -291 0 0
-420 0 -420 185 0 185 0 0 -191 0 -191 -26 32 c-19 22 -30 28 -37 21 -8 -8 -5
-18 10 -33 11 -13 23 -29 27 -35 6 -10 -128 -13 -654 -13 l-660 0 25 40 c14
23 23 45 20 51 -9 13 -23 2 -46 -35 l-19 -31 0 193 0 192 145 0 145 0 0 420 0
420 -345 0 c-190 0 -345 2 -345 5 0 3 11 23 25 46 14 22 23 44 20 50 -9 13
-23 2 -46 -35 l-19 -31 0 193 0 192 535 0 535 0 0 270 0 270 -1060 0 -1060 0
0 -270z m2090 0 l0 -240 -1030 0 -1030 0 0 240 0 240 1030 0 1030 0 0 -240z
m1740 0 l0 -240 -710 0 -710 0 0 240 0 240 710 0 710 0 0 -240z m-2100 -1110
l0 -390 -625 0 -625 0 0 390 0 390 625 0 625 0 0 -390z m2010 0 l0 -390 -625
0 -625 0 0 390 0 390 625 0 625 0 0 -390z m4370 -1285 l0 -405 -980 0 -980 0
0 405 0 405 980 0 980 0 0 -405z m-2510 10 l0 -305 -850 0 -850 0 0 305 0 305
850 0 850 0 0 -305z m-5560 -195 l0 -430 -1040 0 -1040 0 0 430 0 430 1040 0
1040 0 0 -430z m-10 -1070 l0 -290 -840 0 -840 0 0 290 0 290 840 0 840 0 0
-290z m1360 -1480 l0 -280 -880 0 -880 0 0 280 0 280 880 0 880 0 0 -280z
m2720 -100 l0 -380 -695 0 -695 0 0 380 0 380 695 0 695 0 0 -380z"/>
<path d="M2500 6170 c0 -53 4 -90 10 -90 6 0 10 16 10 35 0 30 3 35 23 35 33
0 67 28 67 55 0 35 -26 55 -71 55 l-39 0 0 -90z m81 54 c18 -21 0 -48 -35 -52
-24 -3 -26 0 -26 32 0 31 3 36 24 36 13 0 29 -7 37 -16z"/>
<path d="M3576 6244 c-27 -26 -16 -55 29 -78 26 -14 40 -28 40 -41 0 -17 -6
-20 -43 -19 -50 1 -53 -19 -3 -24 21 -2 40 3 52 14 35 32 19 65 -44 92 -43 18
-32 47 16 46 46 -2 45 20 0 24 -19 2 -37 -3 -47 -14z"/>
<path d="M2650 6143 c0 -73 17 -86 22 -15 2 38 7 49 26 57 32 14 27 23 -13 22
l-35 -1 0 -63z"/>
<path d="M2760 6190 c-53 -53 3 -131 74 -104 28 11 17 24 -14 18 -29 -6 -60 8
-60 27 0 5 23 9 50 9 43 0 50 3 50 19 0 48 -64 67 -100 31z m78 -17 c2 -9 -9
-13 -38 -13 -37 0 -41 2 -30 16 15 17 61 15 68 -3z"/>
<path d="M2891 6196 c-18 -22 -6 -45 29 -58 39 -13 33 -33 -9 -31 -39 1 -37
-21 3 -25 30 -4 56 12 56 35 0 7 -16 23 -35 34 -43 26 -45 43 -5 37 19 -3 29
-1 27 6 -6 17 -52 18 -66 2z"/>
<path d="M3001 6196 c-18 -22 -6 -45 29 -58 39 -13 33 -33 -9 -31 -39 1 -37
-21 3 -25 30 -4 56 12 56 35 0 7 -16 23 -35 34 -43 26 -45 43 -5 37 19 -3 29
-1 27 6 -6 17 -52 18 -66 2z"/>
<path d="M3110 6156 c0 -64 11 -76 68 -73 l42 1 0 63 c0 73 -17 86 -22 17 -3
-50 -22 -72 -52 -61 -12 5 -16 19 -16 57 0 27 -4 50 -10 50 -5 0 -10 -24 -10
-54z"/>
<path d="M3260 6143 c0 -73 17 -86 22 -15 2 38 7 49 26 57 32 14 27 23 -13 22
l-35 -1 0 -63z"/>
<path d="M3370 6190 c-53 -53 3 -131 74 -104 28 11 17 24 -14 18 -29 -6 -60 8
-60 27 0 5 23 9 50 9 43 0 50 3 50 19 0 48 -64 67 -100 31z m78 -17 c2 -9 -9
-13 -38 -13 -37 0 -41 2 -30 16 15 17 61 15 68 -3z"/>
<path d="M3710 6190 c-53 -53 3 -131 74 -104 28 11 17 24 -14 18 -29 -6 -60 8
-60 27 0 5 23 9 50 9 43 0 50 3 50 19 0 48 -64 67 -100 31z m78 -17 c2 -9 -9
-13 -38 -13 -37 0 -41 2 -30 16 15 17 61 15 68 -3z"/>
<path d="M3840 6143 c0 -73 17 -86 22 -17 3 50 22 72 52 61 12 -5 16 -19 16
-57 0 -27 5 -50 10 -50 15 0 12 106 -3 118 -7 6 -32 10 -55 9 l-42 -1 0 -63z"/>
<path d="M3991 6196 c-18 -22 -6 -45 29 -58 39 -13 33 -33 -9 -31 -39 1 -37
-21 3 -25 30 -4 56 12 56 35 0 7 -16 23 -35 34 -43 26 -45 43 -5 37 19 -3 29
-1 27 6 -6 17 -52 18 -66 2z"/>
<path d="M4110 6190 c-25 -25 -26 -72 -2 -93 42 -38 112 -6 112 51 0 57 -69
83 -110 42z m78 -12 c7 -7 12 -21 12 -33 0 -12 -5 -26 -12 -33 -7 -7 -21 -12
-33 -12 -12 0 -26 5 -33 12 -7 7 -12 21 -12 33 0 12 5 26 12 33 7 7 21 12 33
12 12 0 26 -5 33 -12z"/>
<path d="M4250 6143 c0 -73 17 -86 22 -15 2 38 7 49 26 57 32 14 27 23 -13 22
l-35 -1 0 -63z"/>
<path d="M5030 6140 c0 -60 4 -100 10 -100 6 0 10 40 10 100 0 60 -4 100 -10
100 -6 0 -10 -40 -10 -100z"/>
<path d="M4900 6130 c0 -53 4 -90 10 -90 6 0 10 18 10 40 l0 40 40 0 c22 0 40
5 40 10 0 6 -18 10 -40 10 -38 0 -40 2 -40 30 0 28 2 30 40 30 22 0 40 5 40
10 0 6 -22 10 -50 10 l-50 0 0 -90z"/>
<path d="M5760 6186 c0 -8 -6 -17 -12 -19 -10 -4 -10 -7 -1 -14 6 -5 13 -31
15 -58 3 -46 5 -50 31 -53 31 -4 37 13 7 21 -16 4 -20 14 -20 46 0 34 3 41 20
41 11 0 20 5 20 10 0 6 -9 10 -20 10 -11 0 -20 7 -20 15 0 8 -4 15 -10 15 -5
0 -10 -6 -10 -14z"/>
<path d="M5100 6116 c0 -64 11 -76 68 -73 l42 1 0 63 c0 73 -17 86 -22 17 -3
-50 -22 -72 -52 -61 -12 5 -16 19 -16 57 0 27 -4 50 -10 50 -5 0 -10 -24 -10
-54z"/>
<path d="M5242 6163 c2 -5 10 -20 17 -35 12 -24 11 -30 -8 -57 -17 -24 -19
-31 -8 -31 8 0 22 10 31 23 l16 22 16 -22 c9 -13 23 -23 31 -23 11 0 10 7 -6
29 -12 16 -21 32 -21 36 0 4 9 20 21 36 16 22 17 29 6 29 -8 0 -22 -10 -30
-22 l-16 -23 -16 23 c-15 20 -42 32 -33 15z"/>
<path d="M5380 6103 c0 -73 17 -86 22 -17 3 50 22 72 52 61 12 -5 16 -19 16
-57 0 -27 5 -50 10 -50 6 0 10 20 10 44 0 46 19 72 45 62 11 -4 15 -20 15 -56
0 -27 5 -50 10 -50 6 0 10 24 10 54 0 66 -17 85 -61 69 -16 -6 -31 -7 -34 -2
-3 5 -26 8 -50 7 l-45 -2 0 -63z"/>
<path d="M5620 6150 c-53 -53 3 -131 74 -104 28 11 17 24 -14 18 -29 -6 -60 8
-60 27 0 5 23 9 50 9 43 0 50 3 50 19 0 48 -64 67 -100 31z m78 -17 c2 -9 -9
-13 -38 -13 -37 0 -41 2 -30 16 15 17 61 15 68 -3z"/>
<path d="M5860 6150 c-53 -53 3 -131 74 -104 28 11 17 24 -14 18 -29 -6 -60 8
-60 27 0 5 23 9 50 9 43 0 50 3 50 19 0 48 -64 67 -100 31z m78 -17 c2 -9 -9
-13 -38 -13 -37 0 -41 2 -30 16 15 17 61 15 68 -3z"/>
<path d="M5990 6103 c0 -73 17 -86 22 -15 2 38 7 49 26 57 32 14 27 23 -13 22
l-35 -1 0 -63z"/>
<path d="M3470 5280 c0 -60 4 -100 10 -100 6 0 10 40 10 100 0 60 -4 100 -10
100 -6 0 -10 -40 -10 -100z"/>
<path d="M3632 5368 c-7 -7 -12 -22 -12 -34 0 -12 -6 -25 -12 -28 -10 -5 -10
-7 0 -12 7 -3 12 -26 12 -60 0 -30 5 -54 10 -54 6 0 10 25 10 55 0 42 3 55 15
55 8 0 15 5 15 10 0 6 -7 10 -15 10 -23 0 -19 41 5 47 11 3 20 9 20 14 0 13
-34 11 -48 -3z"/>
<path d="M2961 5338 c-4 -13 -18 -49 -30 -81 -24 -65 -25 -77 -11 -77 5 0 12
11 16 25 5 21 12 25 45 25 33 0 41 -4 49 -25 5 -14 14 -25 20 -25 13 0 13 11
-3 51 -8 19 -22 55 -31 82 -19 51 -41 61 -55 25z m49 -75 c0 -8 -12 -13 -30
-13 -19 0 -28 4 -25 13 2 6 10 26 16 42 l11 30 14 -30 c7 -16 13 -36 14 -42z"/>
<path d="M3540 5345 c0 -8 7 -15 15 -15 8 0 15 7 15 15 0 8 -7 15 -15 15 -8 0
-15 -7 -15 -15z"/>
<path d="M3700 5345 c0 -8 7 -15 15 -15 8 0 15 7 15 15 0 8 -7 15 -15 15 -8 0
-15 -7 -15 -15z"/>
<path d="M3090 5243 c0 -73 17 -86 22 -17 3 50 22 72 52 61 12 -5 16 -19 16
-57 0 -27 5 -50 10 -50 6 0 10 20 10 44 0 46 19 72 45 62 11 -4 15 -20 15 -56
0 -27 5 -50 10 -50 6 0 10 24 10 54 0 66 -17 85 -61 69 -16 -6 -31 -7 -34 -2
-3 5 -26 8 -50 7 l-45 -2 0 -63z"/>
<path d="M3320 5220 c0 -53 4 -90 10 -90 6 0 10 13 10 29 0 28 2 29 34 24 27
-4 36 -1 50 18 9 13 16 35 16 50 0 46 -58 77 -88 47 -9 -9 -12 -9 -12 0 0 7
-4 12 -10 12 -6 0 -10 -37 -10 -90z m90 56 c28 -35 -11 -93 -47 -70 -36 22
-23 84 17 84 10 0 23 -7 30 -14z"/>
<path d="M3540 5245 c0 -37 4 -65 10 -65 6 0 10 28 10 65 0 37 -4 65 -10 65
-6 0 -10 -28 -10 -65z"/>
<path d="M3700 5245 c0 -37 4 -65 10 -65 6 0 10 28 10 65 0 37 -4 65 -10 65
-6 0 -10 -28 -10 -65z"/>
<path d="M3780 5290 c-53 -53 3 -131 74 -104 28 11 17 24 -14 18 -29 -6 -60 8
-60 27 0 5 23 9 50 9 43 0 50 3 50 19 0 48 -64 67 -100 31z m78 -17 c2 -9 -9
-13 -38 -13 -37 0 -41 2 -30 16 15 17 61 15 68 -3z"/>
<path d="M3910 5243 c0 -73 17 -86 22 -15 2 38 7 49 26 57 32 14 27 23 -13 22
l-35 -1 0 -63z"/>
<path d="M3136 4984 c-27 -26 -16 -55 29 -78 26 -14 40 -28 40 -41 0 -17 -6
-20 -43 -19 -50 1 -53 -19 -3 -24 21 -2 40 3 52 14 35 32 19 65 -44 92 -43 18
-32 47 16 46 46 -2 45 20 0 24 -19 2 -37 -3 -47 -14z"/>
<path d="M3270 4966 c0 -8 -6 -17 -12 -19 -10 -4 -10 -7 -1 -14 6 -5 13 -31
15 -58 3 -46 5 -50 31 -53 31 -4 37 13 7 21 -16 4 -20 14 -20 46 0 34 3 41 20
41 11 0 20 5 20 10 0 6 -9 10 -20 10 -11 0 -20 7 -20 15 0 8 -4 15 -10 15 -5
0 -10 -6 -10 -14z"/>
<path d="M3373 4943 c-24 -9 -13 -21 18 -19 18 0 34 -5 36 -11 3 -8 -4 -13
-17 -13 -32 0 -60 -18 -60 -39 0 -27 22 -41 63 -39 l37 1 0 52 c0 28 -5 56
-12 63 -12 12 -43 15 -65 5z m57 -77 c0 -18 -39 -31 -52 -18 -15 15 0 32 28
32 14 0 24 -6 24 -14z"/>
<path d="M3510 4935 c-7 -8 -10 -24 -7 -35 3 -11 1 -22 -3 -25 -11 -7 -9 -77
3 -92 22 -29 107 -8 107 25 0 28 -21 42 -63 42 -26 0 -37 4 -34 13 2 7 16 11
34 9 33 -3 47 9 57 51 6 26 5 27 -38 27 -26 0 -48 -6 -56 -15z m65 -25 c0 -18
-33 -26 -47 -12 -6 6 -7 15 -3 22 10 16 50 8 50 -10z m10 -100 c0 -18 -52 -27
-67 -12 -17 17 2 33 35 30 20 -2 32 -8 32 -18z"/>
<path d="M3650 4930 c-53 -53 3 -131 74 -104 28 11 17 24 -14 18 -29 -6 -60 8
-60 27 0 5 23 9 50 9 43 0 50 3 50 19 0 48 -64 67 -100 31z m78 -17 c2 -9 -9
-13 -38 -13 -37 0 -41 2 -30 16 15 17 61 15 68 -3z"/>
<path d="M5480 5280 c0 -60 4 -100 10 -100 6 0 10 40 10 100 0 60 -4 100 -10
100 -6 0 -10 -40 -10 -100z"/>
<path d="M5642 5368 c-7 -7 -12 -22 -12 -34 0 -12 -6 -25 -12 -28 -10 -5 -10
-7 0 -12 7 -3 12 -26 12 -60 0 -30 5 -54 10 -54 6 0 10 25 10 55 0 42 3 55 15
55 8 0 15 5 15 10 0 6 -7 10 -15 10 -23 0 -19 41 5 47 11 3 20 9 20 14 0 13
-34 11 -48 -3z"/>
<path d="M4971 5338 c-4 -13 -18 -49 -30 -81 -24 -65 -25 -77 -11 -77 5 0 12
11 16 25 5 21 12 25 45 25 33 0 41 -4 49 -25 5 -14 14 -25 20 -25 13 0 13 11
-3 51 -8 19 -22 55 -31 82 -19 51 -41 61 -55 25z m49 -75 c0 -8 -12 -13 -30
-13 -19 0 -28 4 -25 13 2 6 10 26 16 42 l11 30 14 -30 c7 -16 13 -36 14 -42z"/>
<path d="M5550 5345 c0 -8 7 -15 15 -15 8 0 15 7 15 15 0 8 -7 15 -15 15 -8 0
-15 -7 -15 -15z"/>
<path d="M5710 5345 c0 -8 7 -15 15 -15 8 0 15 7 15 15 0 8 -7 15 -15 15 -8 0
-15 -7 -15 -15z"/>
<path d="M5100 5243 c0 -73 17 -86 22 -17 3 50 22 72 52 61 12 -5 16 -19 16
-57 0 -27 5 -50 10 -50 6 0 10 20 10 44 0 46 19 72 45 62 11 -4 15 -20 15 -56
0 -27 5 -50 10 -50 6 0 10 24 10 54 0 66 -17 85 -61 69 -16 -6 -31 -7 -34 -2
-3 5 -26 8 -50 7 l-45 -2 0 -63z"/>
<path d="M5330 5220 c0 -53 4 -90 10 -90 6 0 10 13 10 29 0 28 2 29 34 24 27
-4 36 -1 50 18 9 13 16 35 16 50 0 46 -58 77 -88 47 -9 -9 -12 -9 -12 0 0 7
-4 12 -10 12 -6 0 -10 -37 -10 -90z m90 56 c28 -35 -11 -93 -47 -70 -36 22
-23 84 17 84 10 0 23 -7 30 -14z"/>
<path d="M5550 5245 c0 -37 4 -65 10 -65 6 0 10 28 10 65 0 37 -4 65 -10 65
-6 0 -10 -28 -10 -65z"/>
<path d="M5710 5245 c0 -37 4 -65 10 -65 6 0 10 28 10 65 0 37 -4 65 -10 65
-6 0 -10 -28 -10 -65z"/>
<path d="M5790 5290 c-53 -53 3 -131 74 -104 28 11 17 24 -14 18 -29 -6 -60 8
-60 27 0 5 23 9 50 9 43 0 50 3 50 19 0 48 -64 67 -100 31z m78 -17 c2 -9 -9
-13 -38 -13 -37 0 -41 2 -30 16 15 17 61 15 68 -3z"/>
<path d="M5920 5243 c0 -73 17 -86 22 -15 2 38 7 49 26 57 32 14 27 23 -13 22
l-35 -1 0 -63z"/>
<path d="M5146 4984 c-27 -26 -16 -55 29 -78 26 -14 40 -28 40 -41 0 -17 -6
-20 -43 -19 -50 1 -53 -19 -3 -24 21 -2 40 3 52 14 35 32 19 65 -44 92 -43 18
-32 47 16 46 46 -2 45 20 0 24 -19 2 -37 -3 -47 -14z"/>
<path d="M5280 4966 c0 -8 -6 -17 -12 -19 -10 -4 -10 -7 -1 -14 6 -5 13 -31
15 -58 3 -46 5 -50 31 -53 31 -4 37 13 7 21 -16 4 -20 14 -20 46 0 34 3 41 20
41 11 0 20 5 20 10 0 6 -9 10 -20 10 -11 0 -20 7 -20 15 0 8 -4 15 -10 15 -5
0 -10 -6 -10 -14z"/>
<path d="M5383 4943 c-24 -9 -13 -21 18 -19 18 0 34 -5 36 -11 3 -8 -4 -13
-17 -13 -32 0 -60 -18 -60 -39 0 -27 22 -41 63 -39 l37 1 0 52 c0 28 -5 56
-12 63 -12 12 -43 15 -65 5z m57 -77 c0 -18 -39 -31 -52 -18 -15 15 0 32 28
32 14 0 24 -6 24 -14z"/>
<path d="M5520 4935 c-7 -8 -10 -24 -7 -35 3 -11 1 -22 -3 -25 -11 -7 -9 -77
3 -92 22 -29 107 -8 107 25 0 28 -21 42 -63 42 -26 0 -37 4 -34 13 2 7 16 11
34 9 33 -3 47 9 57 51 6 26 5 27 -38 27 -26 0 -48 -6 -56 -15z m65 -25 c0 -18
-33 -26 -47 -12 -6 6 -7 15 -3 22 10 16 50 8 50 -10z m10 -100 c0 -18 -52 -27
-67 -12 -17 17 2 33 35 30 20 -2 32 -8 32 -18z"/>
<path d="M5660 4930 c-53 -53 3 -131 74 -104 28 11 17 24 -14 18 -29 -6 -60 8
-60 27 0 5 23 9 50 9 43 0 50 3 50 19 0 48 -64 67 -100 31z m78 -17 c2 -9 -9
-13 -38 -13 -37 0 -41 2 -30 16 15 17 61 15 68 -3z"/>
<path d="M8800 3940 c0 -53 4 -90 10 -90 6 0 10 16 10 35 0 30 3 35 23 35 33
0 67 28 67 55 0 35 -26 55 -71 55 l-39 0 0 -90z m81 54 c18 -21 0 -48 -35 -52
-24 -3 -26 0 -26 32 0 31 3 36 24 36 13 0 29 -7 37 -16z"/>
<path d="M9860 4015 c0 -8 7 -15 15 -15 8 0 15 7 15 15 0 8 -7 15 -15 15 -8 0
-15 -7 -15 -15z"/>
<path d="M9770 3996 c0 -8 -6 -17 -12 -19 -10 -4 -10 -7 -1 -14 6 -5 13 -31
15 -58 3 -46 5 -50 31 -53 31 -4 37 13 7 21 -16 4 -20 14 -20 46 0 34 3 41 20
41 11 0 20 5 20 10 0 6 -9 10 -20 10 -11 0 -20 7 -20 15 0 8 -4 15 -10 15 -5
0 -10 -6 -10 -14z"/>
<path d="M8950 3913 c0 -73 17 -86 22 -17 3 50 22 72 52 61 12 -5 16 -19 16
-57 0 -27 5 -50 10 -50 15 0 12 106 -3 118 -7 6 -32 10 -55 9 l-42 -1 0 -63z"/>
<path d="M9110 3960 c-53 -53 3 -131 74 -104 28 11 17 24 -14 18 -29 -6 -60 8
-60 27 0 5 23 9 50 9 43 0 50 3 50 19 0 48 -64 67 -100 31z m78 -17 c2 -9 -9
-13 -38 -13 -37 0 -41 2 -30 16 15 17 61 15 68 -3z"/>
<path d="M9240 3926 c0 -64 11 -76 68 -73 l42 1 0 63 c0 73 -17 86 -22 17 -3
-50 -22 -72 -52 -61 -12 5 -16 19 -16 57 0 27 -4 50 -10 50 -5 0 -10 -24 -10
-54z"/>
<path d="M9390 3913 c0 -73 17 -86 22 -17 3 50 22 72 52 61 12 -5 16 -19 16
-57 0 -27 5 -50 10 -50 6 0 10 20 10 44 0 46 19 72 45 62 11 -4 15 -20 15 -56
0 -27 5 -50 10 -50 6 0 10 24 10 54 0 66 -17 85 -61 69 -16 -6 -31 -7 -34 -2
-3 5 -26 8 -50 7 l-45 -2 0 -63z"/>
<path d="M9633 3973 c-24 -9 -13 -21 18 -19 18 0 34 -5 36 -11 3 -8 -4 -13
-17 -13 -32 0 -60 -18 -60 -39 0 -27 22 -41 63 -39 l37 1 0 52 c0 28 -5 56
-12 63 -12 12 -43 15 -65 5z m57 -77 c0 -18 -39 -31 -52 -18 -15 15 0 32 28
32 14 0 24 -6 24 -14z"/>
<path d="M9860 3915 c0 -37 4 -65 10 -65 6 0 10 28 10 65 0 37 -4 65 -10 65
-6 0 -10 -28 -10 -65z"/>
<path d="M9936 3958 c-41 -59 4 -126 68 -102 9 3 16 12 16 20 0 12 -4 12 -20
2 -28 -18 -55 1 -55 37 0 36 27 55 55 37 16 -10 20 -10 20 2 0 32 -63 35 -84
4z"/>
<path d="M8940 3590 c0 -60 4 -100 10 -100 6 0 10 40 10 100 0 60 -4 100 -10
100 -6 0 -10 -40 -10 -100z"/>
<path d="M9610 3651 c0 -39 0 -40 -34 -34 -27 4 -36 1 -50 -18 -39 -56 -9
-109 62 -106 l42 1 0 98 c0 59 -4 98 -10 98 -5 0 -10 -18 -10 -39z m-10 -65
c28 -35 -11 -93 -47 -70 -36 22 -23 84 17 84 10 0 23 -7 30 -14z"/>
<path d="M10040 3590 c0 -60 4 -100 10 -100 6 0 10 40 10 100 0 60 -4 100 -10
100 -6 0 -10 -40 -10 -100z"/>
<path d="M8666 3654 c-27 -26 -16 -55 29 -78 26 -14 40 -28 40 -41 0 -17 -6
-20 -43 -19 -50 1 -53 -19 -3 -24 21 -2 40 3 52 14 35 32 19 65 -44 92 -43 18
-32 47 16 46 46 -2 45 20 0 24 -19 2 -37 -3 -47 -14z"/>
<path d="M9450 3655 c0 -8 7 -15 15 -15 8 0 15 7 15 15 0 8 -7 15 -15 15 -8 0
-15 -7 -15 -15z"/>
<path d="M9722 3662 c2 -4 16 -45 32 -90 27 -74 45 -97 60 -74 3 5 18 45 35
90 22 62 26 82 16 82 -8 0 -23 -28 -36 -70 -13 -38 -26 -70 -29 -70 -3 0 -16
32 -29 70 -15 43 -30 70 -38 70 -8 0 -13 -4 -11 -8z"/>
<path d="M8800 3600 c-25 -25 -26 -72 -2 -93 42 -38 112 -6 112 51 0 57 -69
83 -110 42z m78 -12 c7 -7 12 -21 12 -33 0 -12 -5 -26 -12 -33 -7 -7 -21 -12
-33 -12 -12 0 -26 5 -33 12 -7 7 -12 21 -12 33 0 12 5 26 12 33 7 7 21 12 33
12 12 0 26 -5 33 -12z"/>
<path d="M9020 3600 c-53 -53 3 -131 74 -104 28 11 17 24 -14 18 -29 -6 -60 8
-60 27 0 5 23 9 50 9 43 0 50 3 50 19 0 48 -64 67 -100 31z m78 -17 c2 -9 -9
-13 -38 -13 -37 0 -41 2 -30 16 15 17 61 15 68 -3z"/>
<path d="M9150 3553 c0 -73 17 -86 22 -17 3 50 22 72 52 61 12 -5 16 -19 16
-57 0 -27 5 -50 10 -50 15 0 12 106 -3 118 -7 6 -32 10 -55 9 l-42 -1 0 -63z"/>
<path d="M9310 3600 c-25 -25 -26 -72 -2 -93 42 -38 112 -6 112 51 0 57 -69
83 -110 42z m78 -12 c7 -7 12 -21 12 -33 0 -12 -5 -26 -12 -33 -7 -7 -21 -12
-33 -12 -12 0 -26 5 -33 12 -7 7 -12 21 -12 33 0 12 5 26 12 33 7 7 21 12 33
12 12 0 26 -5 33 -12z"/>
<path d="M9450 3555 c0 -37 4 -65 10 -65 6 0 10 28 10 65 0 37 -4 65 -10 65
-6 0 -10 -28 -10 -65z"/>
<path d="M9913 3613 c-24 -9 -13 -21 18 -19 18 0 34 -5 36 -11 3 -8 -4 -13
-17 -13 -32 0 -60 -18 -60 -39 0 -27 22 -41 63 -39 l37 1 0 52 c0 28 -5 56
-12 63 -12 12 -43 15 -65 5z m57 -77 c0 -18 -39 -31 -52 -18 -15 15 0 32 28
32 14 0 24 -6 24 -14z"/>
<path d="M10102 3609 c3 -8 13 -38 23 -66 26 -72 44 -69 72 9 13 34 21 63 19
66 -10 9 -23 -9 -36 -47 -7 -23 -16 -41 -20 -41 -3 0 -13 19 -21 42 -9 23 -21
44 -29 46 -8 3 -11 -1 -8 -9z"/>
<path d="M10250 3600 c-53 -53 3 -131 74 -104 28 11 17 24 -14 18 -29 -6 -60
8 -60 27 0 5 23 9 50 9 43 0 50 3 50 19 0 48 -64 67 -100 31z m78 -17 c2 -9
-9 -13 -38 -13 -37 0 -41 2 -30 16 15 17 61 15 68 -3z"/>
<path d="M7540 3780 c0 -60 4 -100 10 -100 6 0 10 40 10 100 0 60 -4 100 -10
100 -6 0 -10 -40 -10 -100z"/>
<path d="M6395 3835 c-54 -53 -18 -155 55 -155 19 0 40 9 55 25 54 53 18 155
-55 155 -19 0 -40 -9 -55 -25z m99 -17 c48 -69 -26 -156 -86 -101 -41 36 -11
123 42 123 18 0 34 -8 44 -22z"/>
<path d="M6730 3826 c0 -8 -6 -17 -12 -19 -10 -4 -10 -7 -1 -14 6 -5 13 -31
15 -58 3 -46 5 -50 31 -53 31 -4 37 13 7 21 -16 4 -20 14 -20 46 0 34 3 41 20
41 11 0 20 5 20 10 0 6 -9 10 -20 10 -11 0 -20 7 -20 15 0 8 -4 15 -10 15 -5
0 -10 -6 -10 -14z"/>
<path d="M6570 3720 c0 -53 4 -90 10 -90 6 0 10 13 10 29 0 28 2 29 34 24 27
-4 36 -1 50 18 9 13 16 35 16 50 0 46 -58 77 -88 47 -9 -9 -12 -9 -12 0 0 7
-4 12 -10 12 -6 0 -10 -37 -10 -90z m90 56 c28 -35 -11 -93 -47 -70 -36 22
-23 84 17 84 10 0 23 -7 30 -14z"/>
<path d="M6830 3790 c-25 -25 -26 -72 -2 -93 42 -38 112 -6 112 51 0 57 -69
83 -110 42z m78 -12 c7 -7 12 -21 12 -33 0 -12 -5 -26 -12 -33 -7 -7 -21 -12
-33 -12 -12 0 -26 5 -33 12 -7 7 -12 21 -12 33 0 12 5 26 12 33 7 7 21 12 33
12 12 0 26 -5 33 -12z"/>
<path d="M6976 3788 c-41 -59 4 -126 68 -102 9 3 16 12 16 20 0 12 -4 12 -20
2 -28 -18 -55 1 -55 37 0 36 27 55 55 37 16 -10 20 -10 20 2 0 32 -63 35 -84
4z"/>
<path d="M7100 3790 c-25 -25 -26 -72 -2 -93 42 -38 112 -6 112 51 0 57 -69
83 -110 42z m78 -12 c7 -7 12 -21 12 -33 0 -12 -5 -26 -12 -33 -7 -7 -21 -12
-33 -12 -12 0 -26 5 -33 12 -7 7 -12 21 -12 33 0 12 5 26 12 33 7 7 21 12 33
12 12 0 26 -5 33 -12z"/>
<path d="M7240 3756 c0 -64 11 -76 68 -73 l42 1 0 63 c0 73 -17 86 -22 17 -3
-50 -22 -72 -52 -61 -12 5 -16 19 -16 57 0 27 -4 50 -10 50 -5 0 -10 -24 -10
-54z"/>
<path d="M7390 3720 c0 -53 4 -90 10 -90 6 0 10 13 10 29 0 28 2 29 34 24 27
-4 36 -1 50 18 9 13 16 35 16 50 0 46 -58 77 -88 47 -9 -9 -12 -9 -12 0 0 7
-4 12 -10 12 -6 0 -10 -37 -10 -90z m90 56 c28 -35 -11 -93 -47 -70 -36 22
-23 84 17 84 10 0 23 -7 30 -14z"/>
<path d="M7620 3790 c-53 -53 3 -131 74 -104 28 11 17 24 -14 18 -29 -6 -60 8
-60 27 0 5 23 9 50 9 43 0 50 3 50 19 0 48 -64 67 -100 31z m78 -17 c2 -9 -9
-13 -38 -13 -37 0 -41 2 -30 16 15 17 61 15 68 -3z"/>
<path d="M7750 3743 c0 -73 17 -86 22 -15 2 38 7 49 26 57 32 14 27 23 -13 22
l-35 -1 0 -63z"/>
<path d="M2130 3770 c0 -101 16 -141 22 -54 3 50 22 72 52 61 12 -5 16 -19 16
-57 0 -27 5 -50 10 -50 14 0 12 104 -2 118 -7 7 -21 12 -33 12 -12 0 -26 -5
-33 -12 -9 -9 -12 -2 -12 35 0 26 -4 47 -10 47 -6 0 -10 -40 -10 -100z"/>
<path d="M466 3834 c-27 -26 -16 -55 29 -78 26 -14 40 -28 40 -41 0 -17 -6
-20 -43 -19 -50 1 -53 -19 -3 -24 21 -2 40 3 52 14 35 32 19 65 -44 92 -43 18
-32 47 16 46 46 -2 45 20 0 24 -19 2 -37 -3 -47 -14z"/>
<path d="M990 3835 c0 -8 7 -15 15 -15 8 0 15 7 15 15 0 8 -7 15 -15 15 -8 0
-15 -7 -15 -15z"/>
<path d="M1160 3835 c0 -8 7 -15 15 -15 8 0 15 7 15 15 0 8 -7 15 -15 15 -8 0
-15 -7 -15 -15z"/>
<path d="M1550 3840 c0 -5 14 -10 30 -10 l30 0 0 -80 c0 -47 4 -80 10 -80 6 0
10 33 10 80 l0 80 30 0 c17 0 30 5 30 10 0 6 -30 10 -70 10 -40 0 -70 -4 -70
-10z"/>
<path d="M1070 3816 c0 -8 -6 -17 -12 -19 -10 -4 -10 -7 -1 -14 6 -5 13 -31
15 -58 3 -46 5 -50 31 -53 31 -4 37 13 7 21 -16 4 -20 14 -20 46 0 34 3 41 20
41 11 0 20 5 20 10 0 6 -9 10 -20 10 -11 0 -20 7 -20 15 0 8 -4 15 -10 15 -5
0 -10 -6 -10 -14z"/>
<path d="M600 3780 c-53 -53 3 -131 74 -104 28 11 17 24 -14 18 -29 -6 -60 8
-60 27 0 5 23 9 50 9 43 0 50 3 50 19 0 48 -64 67 -100 31z m78 -17 c2 -9 -9
-13 -38 -13 -37 0 -41 2 -30 16 15 17 61 15 68 -3z"/>
<path d="M730 3733 c0 -73 17 -86 22 -17 3 50 22 72 52 61 12 -5 16 -19 16
-57 0 -27 5 -50 10 -50 15 0 12 106 -3 118 -7 6 -32 10 -55 9 l-42 -1 0 -63z"/>
<path d="M881 3786 c-18 -22 -6 -45 29 -58 39 -13 33 -33 -9 -31 -39 1 -37
-21 3 -25 30 -4 56 12 56 35 0 7 -16 23 -35 34 -43 26 -45 43 -5 37 19 -3 29
-1 27 6 -6 17 -52 18 -66 2z"/>
<path d="M990 3735 c0 -37 4 -65 10 -65 6 0 10 28 10 65 0 37 -4 65 -10 65 -6
0 -10 -28 -10 -65z"/>
<path d="M1160 3735 c0 -37 4 -65 10 -65 6 0 10 28 10 65 0 37 -4 65 -10 65
-6 0 -10 -28 -10 -65z"/>
<path d="M1222 3789 c3 -8 13 -38 23 -66 26 -72 44 -69 72 9 13 34 21 63 19
66 -10 9 -23 -9 -36 -47 -7 -23 -16 -41 -20 -41 -3 0 -13 19 -21 42 -9 23 -21
44 -29 46 -8 3 -11 -1 -8 -9z"/>
<path d="M1370 3780 c-53 -53 3 -131 74 -104 28 11 17 24 -14 18 -29 -6 -60 8
-60 27 0 5 23 9 50 9 43 0 50 3 50 19 0 48 -64 67 -100 31z m78 -17 c2 -9 -9
-13 -38 -13 -37 0 -41 2 -30 16 15 17 61 15 68 -3z"/>
<path d="M1720 3780 c-25 -25 -26 -72 -2 -93 42 -38 112 -6 112 51 0 57 -69
83 -110 42z m78 -12 c28 -28 7 -78 -33 -78 -27 0 -45 18 -45 45 0 27 18 45 45
45 12 0 26 -5 33 -12z"/>
<path d="M1860 3746 c0 -64 11 -76 68 -73 l42 1 0 63 c0 73 -17 86 -22 17 -3
-50 -22 -72 -52 -61 -12 5 -16 19 -16 57 0 27 -4 50 -10 50 -5 0 -10 -24 -10
-54z"/>
<path d="M2016 3778 c-41 -59 4 -126 68 -102 9 3 16 12 16 20 0 12 -4 12 -20
2 -28 -18 -55 1 -55 37 0 36 27 55 55 37 16 -10 20 -10 20 2 0 32 -63 35 -84
4z"/>
<path d="M1462 3498 c-7 -7 -12 -22 -12 -34 0 -12 -6 -25 -12 -28 -10 -5 -10
-7 0 -12 7 -3 12 -26 12 -60 0 -30 5 -54 10 -54 6 0 10 25 10 55 0 42 3 55 15
55 8 0 15 5 15 10 0 6 -7 10 -15 10 -23 0 -19 41 5 47 11 3 20 9 20 14 0 13
-34 11 -48 -3z"/>
<path d="M880 3400 c0 -53 4 -90 10 -90 6 0 10 37 10 90 0 53 -4 90 -10 90 -6
0 -10 -37 -10 -90z"/>
<path d="M1110 3456 c0 -8 -6 -17 -12 -19 -10 -4 -10 -7 -1 -14 6 -5 13 -31
15 -58 3 -46 5 -50 31 -53 31 -4 37 13 7 21 -16 4 -20 14 -20 46 0 34 3 41 20
41 11 0 20 5 20 10 0 6 -9 10 -20 10 -11 0 -20 7 -20 15 0 8 -4 15 -10 15 -5
0 -10 -6 -10 -14z"/>
<path d="M950 3373 c0 -73 17 -86 22 -17 3 50 22 72 52 61 12 -5 16 -19 16
-57 0 -27 5 -50 10 -50 15 0 12 106 -3 118 -7 6 -32 10 -55 9 l-42 -1 0 -63z"/>
<path d="M1210 3420 c-53 -53 3 -131 74 -104 28 11 17 24 -14 18 -29 -6 -60 8
-60 27 0 5 23 9 50 9 43 0 50 3 50 19 0 48 -64 67 -100 31z m78 -17 c2 -9 -9
-13 -38 -13 -37 0 -41 2 -30 16 15 17 61 15 68 -3z"/>
<path d="M1340 3373 c0 -73 17 -86 22 -15 2 38 7 49 26 57 32 14 27 23 -13 22
l-35 -1 0 -63z"/>
<path d="M1543 3433 c-24 -9 -13 -21 18 -19 18 0 34 -5 36 -11 3 -8 -4 -13
-17 -13 -32 0 -60 -18 -60 -39 0 -27 22 -41 63 -39 l37 1 0 52 c0 28 -5 56
-12 63 -12 12 -43 15 -65 5z m57 -77 c0 -18 -39 -31 -52 -18 -15 15 0 32 28
32 14 0 24 -6 24 -14z"/>
<path d="M1676 3418 c-41 -59 4 -126 68 -102 9 3 16 12 16 20 0 12 -4 12 -20
2 -28 -18 -55 1 -55 37 0 36 27 55 55 37 16 -10 20 -10 20 2 0 32 -63 35 -84
4z"/>
<path d="M1800 3420 c-53 -53 3 -131 74 -104 28 11 17 24 -14 18 -29 -6 -60 8
-60 27 0 5 23 9 50 9 43 0 50 3 50 19 0 48 -64 67 -100 31z m78 -17 c2 -9 -9
-13 -38 -13 -37 0 -41 2 -30 16 15 17 61 15 68 -3z"/>
<path d="M1900 2520 c0 -60 4 -100 10 -100 6 0 10 40 10 100 0 60 -4 100 -10
100 -6 0 -10 -40 -10 -100z"/>
<path d="M870 2510 l0 -90 50 0 c28 0 50 5 50 10 0 6 -18 10 -40 10 l-40 0 0
80 c0 47 -4 80 -10 80 -6 0 -10 -37 -10 -90z"/>
<path d="M1010 2582 c-15 -12 -24 -33 -27 -64 -5 -40 -2 -50 20 -72 28 -28 56
-33 88 -16 30 17 22 29 -11 17 -37 -14 -61 -2 -74 37 -21 58 21 109 74 89 31
-12 39 -6 18 15 -18 18 -63 15 -88 -6z"/>
<path d="M1140 2510 l0 -90 45 0 c62 0 95 32 95 90 0 58 -33 90 -95 90 l-45 0
0 -90z m100 50 c11 -11 20 -33 20 -50 0 -17 -9 -39 -20 -50 -11 -11 -33 -20
-50 -20 l-30 0 0 70 0 70 30 0 c17 0 39 -9 50 -20z"/>
<path d="M1390 2510 l0 -90 45 0 c62 0 95 32 95 90 0 58 -33 90 -95 90 l-45 0
0 -90z m100 50 c11 -11 20 -33 20 -50 0 -17 -9 -39 -20 -50 -11 -11 -33 -20
-50 -20 l-30 0 0 70 0 70 30 0 c17 0 39 -9 50 -20z"/>
<path d="M1570 2585 c0 -8 7 -15 15 -15 8 0 15 7 15 15 0 8 -7 15 -15 15 -8 0
-15 -7 -15 -15z"/>
<path d="M1570 2485 c0 -37 4 -65 10 -65 6 0 10 28 10 65 0 37 -4 65 -10 65
-6 0 -10 -28 -10 -65z"/>
<path d="M1641 2536 c-18 -22 -6 -45 29 -58 39 -13 33 -33 -9 -31 -39 1 -37
-21 3 -25 30 -4 56 12 56 35 0 7 -16 23 -35 34 -43 26 -45 43 -5 37 19 -3 29
-1 27 6 -6 17 -52 18 -66 2z"/>
<path d="M1750 2460 c0 -53 4 -90 10 -90 6 0 10 13 10 29 0 28 2 29 34 24 27
-4 36 -1 50 18 9 13 16 35 16 50 0 46 -58 77 -88 47 -9 -9 -12 -9 -12 0 0 7
-4 12 -10 12 -6 0 -10 -37 -10 -90z m90 56 c28 -35 -11 -93 -47 -70 -36 22
-23 84 17 84 10 0 23 -7 30 -14z"/>
<path d="M1983 2543 c-24 -9 -13 -21 18 -19 18 0 34 -5 36 -11 3 -8 -4 -13
-17 -13 -32 0 -60 -18 -60 -39 0 -27 22 -41 63 -39 l37 1 0 52 c0 28 -5 56
-12 63 -12 12 -43 15 -65 5z m57 -77 c0 -18 -39 -31 -52 -18 -15 15 0 32 28
32 14 0 24 -6 24 -14z"/>
<path d="M2117 2488 c16 -40 23 -72 19 -90 -7 -36 11 -37 25 0 54 140 58 152
44 152 -7 0 -21 -23 -31 -52 l-17 -52 -19 52 c-11 29 -26 52 -33 52 -10 0 -7
-15 12 -62z"/>
<path d="M2492 1118 c-7 -7 -12 -22 -12 -34 0 -12 -6 -25 -12 -28 -10 -5 -10
-7 0 -12 7 -3 12 -26 12 -60 0 -30 5 -54 10 -54 6 0 10 25 10 55 0 42 3 55 15
55 8 0 15 5 15 10 0 6 -7 10 -15 10 -23 0 -19 41 5 47 11 3 20 9 20 14 0 13
-34 11 -48 -3z"/>
<path d="M3190 1091 c0 -39 0 -40 -34 -34 -27 4 -36 1 -50 -18 -39 -56 -9
-109 62 -106 l42 1 0 98 c0 59 -4 98 -10 98 -5 0 -10 -18 -10 -39z m-10 -65
c28 -35 -11 -93 -47 -70 -36 22 -23 84 17 84 10 0 23 -7 30 -14z"/>
<path d="M3400 1030 c0 -60 4 -100 10 -100 6 0 10 40 10 100 0 60 -4 100 -10
100 -6 0 -10 -40 -10 -100z"/>
<path d="M2130 1104 c0 -4 11 -45 25 -91 31 -100 47 -106 70 -25 9 31 18 62
19 67 2 6 12 -19 22 -54 16 -56 35 -83 50 -69 2 3 13 35 23 71 11 36 22 74 26
86 4 14 2 21 -7 21 -9 0 -21 -27 -33 -77 l-19 -78 -23 78 c-14 43 -30 77 -37
77 -7 0 -20 -31 -31 -77 -10 -43 -20 -73 -22 -66 -2 6 -12 40 -21 74 -9 34
-23 64 -29 67 -7 2 -13 0 -13 -4z"/>
<path d="M2400 1095 c0 -8 7 -15 15 -15 8 0 15 7 15 15 0 8 -7 15 -15 15 -8 0
-15 -7 -15 -15z"/>
<path d="M2560 1095 c0 -8 7 -15 15 -15 8 0 15 7 15 15 0 8 -7 15 -15 15 -8 0
-15 -7 -15 -15z"/>
<path d="M2700 1020 c0 -110 18 -121 22 -13 l3 76 31 -74 c17 -41 36 -74 43
-74 7 0 27 33 44 74 l32 73 3 -76 c4 -107 22 -96 22 14 0 80 -2 90 -18 90 -12
0 -26 -20 -46 -65 -15 -36 -32 -65 -36 -65 -4 0 -20 29 -35 65 -20 47 -33 65
-47 65 -16 0 -18 -9 -18 -90z"/>
<path d="M2400 995 c0 -37 4 -65 10 -65 6 0 10 28 10 65 0 37 -4 65 -10 65 -6
0 -10 -28 -10 -65z"/>
<path d="M2560 995 c0 -37 4 -65 10 -65 6 0 10 28 10 65 0 37 -4 65 -10 65 -6
0 -10 -28 -10 -65z"/>
<path d="M2960 1040 c-25 -25 -26 -72 -2 -93 42 -38 112 -6 112 51 0 57 -69
83 -110 42z m78 -12 c28 -28 7 -78 -33 -78 -27 0 -45 18 -45 45 0 27 18 45 45
45 12 0 26 -5 33 -12z"/>
<path d="M3250 1006 c0 -64 11 -76 68 -73 l42 1 0 63 c0 73 -17 86 -22 17 -3
-50 -22 -72 -52 -61 -12 5 -16 19 -16 57 0 27 -4 50 -10 50 -5 0 -10 -24 -10
-54z"/>
<path d="M3480 1040 c-53 -53 3 -131 74 -104 28 11 17 24 -14 18 -29 -6 -60 8
-60 27 0 5 23 9 50 9 43 0 50 3 50 19 0 48 -64 67 -100 31z m78 -17 c2 -9 -9
-13 -38 -13 -37 0 -41 2 -30 16 15 17 61 15 68 -3z"/>
<path d="M5830 1161 c0 -39 0 -40 -34 -34 -27 4 -36 1 -50 -18 -39 -56 -9
-109 62 -106 l42 1 0 98 c0 59 -4 98 -10 98 -5 0 -10 -18 -10 -39z m-10 -65
c28 -35 -11 -93 -47 -70 -36 22 -23 84 17 84 10 0 23 -7 30 -14z"/>
<path d="M5150 1090 c0 -53 4 -90 10 -90 6 0 10 37 10 90 0 53 -4 90 -10 90
-6 0 -10 -37 -10 -90z"/>
<path d="M5220 1090 c0 -53 4 -90 10 -90 6 0 10 18 10 40 0 34 3 40 21 40 14
0 25 -12 37 -40 9 -22 23 -40 30 -40 16 0 15 4 -8 49 -17 34 -18 41 -5 51 38
32 4 80 -56 80 l-39 0 0 -90z m88 46 c5 -22 -13 -36 -45 -36 -19 0 -23 5 -23
31 0 28 2 30 32 27 23 -2 34 -9 36 -22z"/>
<path d="M5450 1090 l0 -90 55 0 c30 0 55 5 55 10 0 6 -20 10 -45 10 -43 0
-45 1 -45 30 0 28 2 30 40 30 22 0 40 5 40 10 0 6 -18 10 -40 10 -38 0 -40 2
-40 30 0 29 2 30 45 30 25 0 45 5 45 10 0 6 -25 10 -55 10 l-55 0 0 -90z"/>
<path d="M6010 1146 c0 -8 -6 -17 -12 -19 -10 -4 -10 -7 -1 -14 6 -5 13 -31
15 -58 3 -46 5 -50 31 -53 31 -4 37 13 7 21 -16 4 -20 14 -20 46 0 34 3 41 20
41 11 0 20 5 20 10 0 6 -9 10 -20 10 -11 0 -20 7 -20 15 0 8 -4 15 -10 15 -5
0 -10 -6 -10 -14z"/>
<path d="M5590 1063 c0 -73 17 -86 22 -17 3 50 22 72 52 61 12 -5 16 -19 16
-57 0 -27 5 -50 10 -50 15 0 12 106 -3 118 -7 6 -32 10 -55 9 l-42 -1 0 -63z"/>
<path d="M5891 1116 c-18 -22 -6 -45 29 -58 39 -13 33 -33 -9 -31 -39 1 -37
-21 3 -25 30 -4 56 12 56 35 0 7 -16 23 -35 34 -43 26 -45 43 -5 37 19 -3 29
-1 27 6 -6 17 -52 18 -66 2z"/>
<path d="M6110 1110 c-25 -25 -26 -72 -2 -93 42 -38 112 -6 112 51 0 57 -69
83 -110 42z m78 -12 c28 -28 7 -78 -33 -78 -27 0 -45 18 -45 45 0 27 18 45 45
45 12 0 26 -5 33 -12z"/>
<path d="M6250 1040 c0 -53 4 -90 10 -90 6 0 10 13 10 29 0 28 2 29 34 24 27
-4 36 -1 50 18 9 13 16 35 16 50 0 46 -58 77 -88 47 -9 -9 -12 -9 -12 0 0 7
-4 12 -10 12 -6 0 -10 -37 -10 -90z m90 56 c28 -35 -11 -93 -47 -70 -36 22
-23 84 17 84 10 0 23 -7 30 -14z"/>
<path d="M5366 804 c-27 -26 -16 -55 29 -78 26 -14 40 -28 40 -41 0 -17 -6
-20 -43 -19 -50 1 -53 -19 -3 -24 21 -2 40 3 52 14 35 32 19 65 -44 92 -43 18
-32 47 16 46 46 -2 45 20 0 24 -19 2 -37 -3 -47 -14z"/>
<path d="M5500 750 c-53 -53 3 -131 74 -104 28 11 17 24 -14 18 -29 -6 -60 8
-60 27 0 5 23 9 50 9 43 0 50 3 50 19 0 48 -64 67 -100 31z m78 -17 c2 -9 -9
-13 -38 -13 -37 0 -41 2 -30 16 15 17 61 15 68 -3z"/>
<path d="M5630 703 c0 -73 17 -86 22 -17 3 50 22 72 52 61 12 -5 16 -19 16
-57 0 -27 5 -50 10 -50 15 0 12 106 -3 118 -7 6 -32 10 -55 9 l-42 -1 0 -63z"/>
<path d="M5781 756 c-18 -22 -6 -45 29 -58 39 -13 33 -33 -9 -31 -39 1 -37
-21 3 -25 30 -4 56 12 56 35 0 7 -16 23 -35 34 -43 26 -45 43 -5 37 19 -3 29
-1 27 6 -6 17 -52 18 -66 2z"/>
<path d="M5900 750 c-25 -25 -26 -72 -2 -93 42 -38 112 -6 112 51 0 57 -69 83
-110 42z m78 -12 c28 -28 7 -78 -33 -78 -27 0 -45 18 -45 45 0 27 18 45 45 45
12 0 26 -5 33 -12z"/>
<path d="M6040 703 c0 -73 17 -86 22 -15 2 38 7 49 26 57 32 14 27 23 -13 22
l-35 -1 0 -63z"/>
<path d="M8210 2565 l0 -154 -81 50 c-56 35 -85 47 -92 40 -7 -7 6 -20 42 -42
28 -18 51 -34 51 -35 0 -2 -97 -4 -215 -4 l-215 0 0 145 0 145 -725 0 -725 0
0 -285 0 -285 725 0 725 0 0 125 0 125 223 0 222 -1 -47 -24 c-50 -27 -64 -40
-49 -50 6 -3 42 10 80 30 39 19 73 35 76 35 3 0 5 -49 5 -110 l0 -110 1030 0
1030 0 0 280 0 280 -1030 0 -1030 0 0 -155z"/>
</g>
</svg>
